<?xml version="1.0" encoding="UTF-8"?>
<!DOCTYPE svg PUBLIC "-//W3C//DTD SVG 1.1//EN" "http://www.w3.org/Graphics/SVG/1.1/DTD/svg11.dtd">
<svg xmlns="http://www.w3.org/2000/svg" version="1.1" width="17340px" height="3600px" style="shape-rendering:geometricPrecision; text-rendering:geometricPrecision; image-rendering:optimizeQuality; fill-rule:evenodd; clip-rule:evenodd" xmlns:xlink="http://www.w3.org/1999/xlink">
<g><path style="opacity:0.999" fill="#00bed6" d="M -0.5,-0.5 C 428.167,-0.5 856.833,-0.5 1285.5,-0.5C 1285.5,-0.166667 1285.5,0.166667 1285.5,0.5C 857.17,236.663 429.17,473.329 1.5,710.5C 0.833333,710.5 0.166667,710.5 -0.5,710.5C -0.5,473.5 -0.5,236.5 -0.5,-0.5 Z"/></g>
<g><path style="opacity:0.999" fill="#e6007a" d="M 1285.5,0.5 C 1285.5,0.166667 1285.5,-0.166667 1285.5,-0.5C 1602.17,-0.5 1918.83,-0.5 2235.5,-0.5C 2596.05,16.6816 2906.72,148.515 3167.5,395C 3392.38,614.878 3530.88,881.045 3583,1193.5C 3624.69,1470.97 3589.03,1737.97 3476,1994.5C 3337.71,2293.46 3122.87,2519.63 2831.5,2673C 2649.32,2765.88 2455.98,2817.21 2251.5,2827C 2090.17,2828.15 1928.84,2828.65 1767.5,2828.5C 1615.17,2828.33 1462.83,2828.17 1310.5,2828C 1310.83,2827.67 1311.17,2827.33 1311.5,2827C 1713.26,2595.57 2114.76,2363.73 2516,2131.5C 2516.83,1657.83 2516.67,1184.17 2515.5,710.5C 2105.47,473.822 1695.47,237.155 1285.5,0.5 Z"/></g>
<g><path style="opacity:1" fill="#fefffe" d="M -0.5,710.5 C 0.166667,710.5 0.833333,710.5 1.5,710.5C 428.944,944.726 856.611,1178.73 1284.5,1412.5C 1285.5,2141.5 1285.83,2870.5 1285.5,3599.5C 856.833,3599.5 428.167,3599.5 -0.5,3599.5C -0.5,2636.5 -0.5,1673.5 -0.5,710.5 Z"/></g>
<g><path style="opacity:0.996" fill="#fefffe" d="M 7787.5,839.5 C 7896.17,839.5 8004.83,839.5 8113.5,839.5C 8113.5,1492.83 8113.5,2146.17 8113.5,2799.5C 8004.83,2799.5 7896.17,2799.5 7787.5,2799.5C 7787.5,2146.17 7787.5,1492.83 7787.5,839.5 Z"/></g>
<g><path style="opacity:0.996" fill="#fefffe" d="M 8443.5,839.5 C 8552.17,839.5 8660.83,839.5 8769.5,839.5C 8769.33,1212.17 8769.5,1584.83 8770,1957.5C 8953.22,1771.94 9136.06,1586.11 9318.5,1400C 9453.5,1399.33 9588.5,1399.33 9723.5,1400C 9539.15,1585.68 9354.82,1771.35 9170.5,1957C 9364.96,2237.63 9559.62,2518.13 9754.5,2798.5C 9625.17,2799.83 9495.83,2799.83 9366.5,2798.5C 9226.2,2593.7 9085.7,2389.03 8945,2184.5C 8886.67,2242.83 8828.33,2301.17 8770,2359.5C 8769.5,2506.17 8769.33,2652.83 8769.5,2799.5C 8660.83,2799.5 8552.17,2799.5 8443.5,2799.5C 8443.5,2146.17 8443.5,1492.83 8443.5,839.5 Z"/></g>
<g><path style="opacity:0.996" fill="#fefffe" d="M 12839.5,945.5 C 12947.2,945.5 13054.8,945.5 13162.5,945.5C 13162.5,1096.83 13162.5,1248.17 13162.5,1399.5C 13270.8,1399.5 13379.2,1399.5 13487.5,1399.5C 13487.8,1488.4 13487.5,1577.24 13486.5,1666C 13378.5,1666.5 13270.5,1666.67 13162.5,1666.5C 13162.3,1911.83 13162.5,2157.17 13163,2402.5C 13162.6,2428.04 13166.9,2452.71 13176,2476.5C 13185.3,2494.82 13199.8,2506.99 13219.5,2513C 13235.5,2517.62 13251.8,2520.29 13268.5,2521C 13355.5,2521.5 13442.5,2521.67 13529.5,2521.5C 13529.8,2614.4 13529.5,2707.24 13528.5,2800C 13412.8,2800.67 13297.2,2800.67 13181.5,2800C 13120.8,2801.16 13062.5,2790.16 13006.5,2767C 12927.7,2729.47 12877.2,2668.3 12855,2583.5C 12847.6,2554.94 12843,2525.94 12841,2496.5C 12839.5,2219.84 12839,1943.17 12839.5,1666.5C 12740.8,1666.67 12642.2,1666.5 12543.5,1666C 12542.5,1577.24 12542.2,1488.4 12542.5,1399.5C 12641.5,1399.5 12740.5,1399.5 12839.5,1399.5C 12839.5,1248.17 12839.5,1096.83 12839.5,945.5 Z"/></g>
<g><path style="opacity:0.996" fill="#fefffe" d="M 15339.5,945.5 C 15447.2,945.5 15554.8,945.5 15662.5,945.5C 15662.5,1096.83 15662.5,1248.17 15662.5,1399.5C 15770.8,1399.5 15879.2,1399.5 15987.5,1399.5C 15987.8,1488.4 15987.5,1577.24 15986.5,1666C 15878.5,1666.5 15770.5,1666.67 15662.5,1666.5C 15662.3,1914.83 15662.5,2163.17 15663,2411.5C 15663.3,2432.47 15667,2452.8 15674,2472.5C 15683.6,2493.91 15699.8,2507.74 15722.5,2514C 15737.6,2517.92 15752.9,2520.25 15768.5,2521C 15855.5,2521.5 15942.5,2521.67 16029.5,2521.5C 16029.8,2614.4 16029.5,2707.24 16028.5,2800C 15912.8,2800.67 15797.2,2800.67 15681.5,2800C 15621.6,2801.07 15563.9,2790.41 15508.5,2768C 15436.7,2735.52 15387.9,2682.02 15362,2607.5C 15350.5,2573.07 15343.5,2537.73 15341,2501.5C 15339.5,2223.18 15339,1944.84 15339.5,1666.5C 15240.8,1666.67 15142.2,1666.5 15043.5,1666C 15042.5,1577.24 15042.2,1488.4 15042.5,1399.5C 15141.5,1399.5 15240.5,1399.5 15339.5,1399.5C 15339.5,1248.17 15339.5,1096.83 15339.5,945.5 Z"/></g>
<g><path style="opacity:0.997" fill="#fefffe" d="M 5319.5,1371.5 C 5445.59,1365.05 5561.92,1395.21 5668.5,1462C 5743.7,1511.87 5804.54,1575.37 5851,1652.5C 5914.68,1761.22 5951.68,1878.55 5962,2004.5C 5974.03,2128.81 5962.36,2250.81 5927,2370.5C 5891.26,2489.21 5828.76,2591.05 5739.5,2676C 5636.26,2768.58 5514.93,2818.91 5375.5,2827C 5249.74,2833.95 5135.41,2801.62 5032.5,2730C 4988.3,2699.14 4952.47,2660.64 4925,2614.5C 4924.5,2862.83 4924.33,3111.17 4924.5,3359.5C 4816.17,3359.5 4707.83,3359.5 4599.5,3359.5C 4599.5,2706.17 4599.5,2052.83 4599.5,1399.5C 4707.83,1399.5 4816.17,1399.5 4924.5,1399.5C 4924.33,1461.17 4924.5,1522.83 4925,1584.5C 4948.11,1547.04 4977.28,1514.88 5012.5,1488C 5103.37,1419.59 5205.7,1380.76 5319.5,1371.5 Z M 5253.5,1635.5 C 5387.81,1625.57 5490.98,1676.91 5563,1789.5C 5601.24,1854.06 5624.9,1923.72 5634,1998.5C 5647.4,2098.56 5640.73,2197.23 5614,2294.5C 5595.61,2357.3 5565.28,2413.3 5523,2462.5C 5449.94,2539.76 5360.11,2573.26 5253.5,2563C 5171.93,2555.13 5103.43,2521.3 5048,2461.5C 4994.4,2400.3 4958.73,2329.64 4941,2249.5C 4919,2149.5 4919,2049.5 4941,1949.5C 4956.53,1879.49 4985.86,1816.16 5029,1759.5C 5067.55,1710.95 5115.71,1675.45 5173.5,1653C 5199.57,1643.76 5226.23,1637.92 5253.5,1635.5 Z"/></g>
<g><path style="opacity:0.996" fill="#fefffe" d="M 6799.5,1371.5 C 6917.85,1365.47 7030.85,1386.97 7138.5,1436C 7284.54,1508.04 7391.37,1618.2 7459,1766.5C 7509.02,1881.58 7531.68,2001.92 7527,2127.5C 7523.94,2250.4 7494.28,2366.4 7438,2475.5C 7344.49,2646.29 7203.32,2756.79 7014.5,2807C 6872.42,2840.73 6732.42,2833.73 6594.5,2786C 6444.57,2728.72 6329.73,2630.56 6250,2491.5C 6190.91,2383.81 6158.57,2268.48 6153,2145.5C 6145.83,2016.51 6167.16,1892.51 6217,1773.5C 6283.21,1623.63 6389.37,1511.79 6535.5,1438C 6619.24,1398.57 6707.24,1376.4 6799.5,1371.5 Z M 6803.5,1635.5 C 6968.23,1624.25 7085.4,1692.92 7155,1841.5C 7185.9,1914.64 7202.23,1990.97 7204,2070.5C 7207.76,2153.76 7197.09,2235.1 7172,2314.5C 7153.14,2371.27 7123.8,2421.6 7084,2465.5C 7030.36,2521.24 6964.86,2553.4 6887.5,2562C 6716.28,2578.84 6594.78,2509.67 6523,2354.5C 6498.22,2295.61 6483.22,2234.28 6478,2170.5C 6469.45,2080.4 6477.12,1991.73 6501,1904.5C 6518.8,1843.88 6547.8,1789.55 6588,1741.5C 6645.73,1677.72 6717.56,1642.39 6803.5,1635.5 Z"/></g>
<g><path style="opacity:0.996" fill="#fefffe" d="M 10382.5,1371.5 C 10478.8,1366.62 10572.8,1378.79 10664.5,1408C 10757.9,1439.24 10836.1,1492.41 10899,1567.5C 10963.9,1652.15 10998.6,1748.15 11003,1855.5C 11003.3,2083.17 11003.7,2310.83 11004,2538.5C 11004.1,2626.07 11008.6,2713.4 11017.5,2800.5C 10916.8,2800.67 10816.2,2800.5 10715.5,2800C 10713.2,2793.06 10711.7,2785.89 10711,2778.5C 10703.7,2722.38 10699.1,2666.04 10697,2609.5C 10657.5,2671.72 10605.6,2720.89 10541.5,2757C 10435.5,2815.61 10322.1,2837.94 10201.5,2824C 10110.5,2813.79 10028.8,2781.13 9956.5,2726C 9851.12,2636.99 9802.62,2523.16 9811,2384.5C 9820.85,2229.82 9893.35,2115.65 10028.5,2042C 10091.7,2009.6 10158.4,1987.6 10228.5,1976C 10250.1,1972.25 10271.7,1969.25 10293.5,1967C 10424.4,1956.02 10555.2,1944.86 10686,1933.5C 10689.9,1883.23 10683.9,1834.23 10668,1786.5C 10633.2,1700.49 10569.7,1650.99 10477.5,1638C 10444.2,1635.09 10410.9,1634.76 10377.5,1637C 10319.3,1642.39 10267.9,1663.73 10223.5,1701C 10187.4,1733.49 10166.7,1773.99 10161.5,1822.5C 10052.8,1822.5 9944.17,1822.5 9835.5,1822.5C 9847.91,1695.42 9902.57,1590.92 9999.5,1509C 10081.2,1444.05 10173.9,1402.38 10277.5,1384C 10312.4,1377.76 10347.4,1373.59 10382.5,1371.5 Z M 10682.5,2175.5 C 10683.8,2175.5 10685.2,2175.5 10686.5,2175.5C 10704.5,2325.69 10649.1,2439.19 10520.5,2516C 10435.6,2563.26 10346,2575.6 10251.5,2553C 10200.5,2537.66 10163.3,2506.16 10140,2458.5C 10120.3,2407.39 10124,2358.06 10151,2310.5C 10169.5,2282.83 10193.3,2261 10222.5,2245C 10266.2,2222.45 10312.5,2208.78 10361.5,2204C 10468.7,2194.76 10575.7,2185.26 10682.5,2175.5 Z"/></g>
<g><path style="opacity:0.996" fill="#fefffe" d="M 11796.5,1371.5 C 11881.7,1367.66 11965.7,1375.82 12048.5,1396C 12129.4,1415.95 12201.1,1452.95 12263.5,1507C 12333.8,1572.73 12377.6,1653.23 12395,1748.5C 12401.1,1782.23 12403.9,1816.23 12403.5,1850.5C 12295.2,1850.83 12186.8,1850.5 12078.5,1849.5C 12075.1,1801.2 12060.3,1756.86 12034,1716.5C 12006,1678.52 11969.1,1653.02 11923.5,1640C 11893.5,1632.12 11863,1628.62 11832,1629.5C 11789.7,1628.06 11748.9,1634.89 11709.5,1650C 11677,1663.47 11650.9,1684.64 11631,1713.5C 11606.7,1756.46 11605.3,1800.12 11627,1844.5C 11646.8,1875.3 11673.6,1897.8 11707.5,1912C 11721.5,1918.17 11735.8,1923.5 11750.5,1928C 11847.2,1951 11943.8,1974 12040.5,1997C 12104.1,2013.32 12163.8,2038.65 12219.5,2073C 12326.4,2142.76 12382.9,2241.92 12389,2370.5C 12396.4,2512.79 12343.6,2626.63 12230.5,2712C 12170.8,2754.61 12105.1,2784.94 12033.5,2803C 11949.4,2823.5 11864,2831.5 11777.5,2827C 11690.3,2824.3 11606,2807.64 11524.5,2777C 11351.3,2706.43 11254.8,2577.93 11235,2391.5C 11233.8,2377.18 11233,2362.85 11232.5,2348.5C 11341.2,2348.5 11449.8,2348.5 11558.5,2348.5C 11567,2449.75 11619,2517.59 11714.5,2552C 11764.1,2567.16 11814.7,2572.82 11866.5,2569C 11913.6,2567.9 11957.6,2555.9 11998.5,2533C 12057.4,2494.27 12078.3,2440.43 12061,2371.5C 12051.6,2341.73 12034.1,2317.9 12008.5,2300C 11982,2283.09 11953.3,2271.09 11922.5,2264C 11835.2,2245.44 11748.2,2225.77 11661.5,2205C 11595.8,2187.66 11533.5,2162.32 11474.5,2129C 11339.5,2047.42 11278,1927.25 11290,1768.5C 11302.4,1645.2 11358.9,1548.03 11459.5,1477C 11523.7,1433.4 11594.1,1403.74 11670.5,1388C 11712.3,1379.53 11754.3,1374.03 11796.5,1371.5 Z"/></g>
<g><path style="opacity:0.996" fill="#fefffe" d="M 14257.5,1371.5 C 14338,1367.83 14417.3,1375.67 14495.5,1395C 14594.4,1419.72 14679.2,1468.22 14750,1540.5C 14828.6,1628.07 14870.9,1731.07 14877,1849.5C 14878.3,2093.49 14879,2337.49 14879,2581.5C 14880.1,2654.68 14884.2,2727.52 14891.5,2800C 14790.8,2800.67 14690.2,2800.67 14589.5,2800C 14584.7,2774.4 14581.2,2748.57 14579,2722.5C 14575.2,2684.91 14572.5,2647.25 14571,2609.5C 14531.8,2671 14480.7,2719.83 14417.5,2756C 14321.9,2809.85 14219.3,2833.52 14109.5,2827C 14014.5,2822.11 13927.8,2793.11 13849.5,2740C 13733.9,2653.23 13679,2537.06 13685,2391.5C 13694.3,2222.92 13774.8,2102.42 13926.5,2030C 14003.3,1995.72 14083.6,1974.72 14167.5,1967C 14298.5,1955.67 14429.5,1944.84 14560.5,1934.5C 14560.7,1913.83 14560.5,1893.16 14560,1872.5C 14557.2,1813.52 14537.6,1761.19 14501,1715.5C 14455.5,1666.03 14399,1639.53 14331.5,1636C 14277.7,1631.08 14225.4,1637.42 14174.5,1655C 14123,1674.13 14083.5,1707.3 14056,1754.5C 14044.8,1775.86 14038,1798.52 14035.5,1822.5C 13926.8,1822.5 13818.2,1822.5 13709.5,1822.5C 13724.4,1679.58 13790.1,1566.74 13906.5,1484C 13994.5,1424.67 14091.5,1389 14197.5,1377C 14217.6,1374.82 14237.6,1372.99 14257.5,1371.5 Z M 14557.5,2175.5 C 14558.5,2175.5 14559.5,2175.5 14560.5,2175.5C 14578.5,2328.31 14521.5,2442.81 14389.5,2519C 14307.2,2563.09 14220.5,2574.76 14129.5,2554C 14086,2541.84 14051.5,2517.34 14026,2480.5C 13993.5,2423.56 13993.5,2366.56 14026,2309.5C 14045.2,2280.97 14070,2258.81 14100.5,2243C 14146.5,2220.01 14195.1,2206.67 14246.5,2203C 14350.3,2194.1 14454,2184.93 14557.5,2175.5 Z"/></g>
<g><path style="opacity:0.996" fill="#fefffe" d="M 17339.5,1816.5 C 17339.5,1827.83 17339.5,1839.17 17339.5,1850.5C 17231.2,1850.83 17122.8,1850.5 17014.5,1849.5C 17011.2,1806.46 16999,1766.12 16978,1728.5C 16950,1683.85 16910.5,1654.35 16859.5,1640C 16829.7,1632.15 16799.3,1628.65 16768.5,1629.5C 16719.4,1627.51 16672.8,1637.01 16628.5,1658C 16559.6,1696.13 16535.4,1753.3 16556,1829.5C 16568.7,1858.22 16588.5,1880.72 16615.5,1897C 16637.8,1910.32 16661.5,1920.66 16686.5,1928C 16783.2,1951 16879.8,1974 16976.5,1997C 17038.9,2013.12 17097.5,2037.78 17152.5,2071C 17253.3,2134.64 17310.2,2226.14 17323,2345.5C 17339.2,2499.48 17285.7,2622.65 17162.5,2715C 17097.5,2760.13 17026.2,2791.13 16948.5,2808C 16871,2824.7 16792.7,2831.03 16713.5,2827C 16637.3,2824.47 16563,2811.47 16490.5,2788C 16406.1,2760.43 16334.3,2713.93 16275,2648.5C 16219.3,2581.53 16185.6,2504.53 16174,2417.5C 16171,2394.59 16169.1,2371.59 16168.5,2348.5C 16277.2,2348.5 16385.8,2348.5 16494.5,2348.5C 16501.7,2442.52 16548.4,2508.36 16634.5,2546C 16665.1,2558.04 16696.7,2565.38 16729.5,2568C 16767.6,2570.71 16805.6,2569.71 16843.5,2565C 16885.7,2559.07 16923.3,2543.07 16956.5,2517C 16995.6,2480.63 17010.1,2436.13 17000,2383.5C 16990.1,2340.62 16965.6,2309.12 16926.5,2289C 16904.8,2278.1 16882.1,2269.76 16858.5,2264C 16771.2,2245.44 16684.2,2225.77 16597.5,2205C 16531.8,2187.66 16469.5,2162.32 16410.5,2129C 16281.2,2052.25 16219.4,1938.09 16225,1786.5C 16231.7,1658.82 16286.2,1557.32 16388.5,1482C 16462,1430.48 16543.3,1397.48 16632.5,1383C 16693.8,1372.61 16755.4,1368.95 16817.5,1372C 16898.4,1374.53 16976.7,1389.87 17052.5,1418C 17230.6,1491.03 17326.3,1623.86 17339.5,1816.5 Z"/></g>
</svg>
