<?xml version="1.0" encoding="UTF-8"?>
<!DOCTYPE svg PUBLIC "-//W3C//DTD SVG 1.1//EN" "http://www.w3.org/Graphics/SVG/1.1/DTD/svg11.dtd">
<svg xmlns="http://www.w3.org/2000/svg" version="1.1" width="3600px" height="3600px" style="shape-rendering:geometricPrecision; text-rendering:geometricPrecision; image-rendering:optimizeQuality; fill-rule:evenodd; clip-rule:evenodd" xmlns:xlink="http://www.w3.org/1999/xlink">
<g><path style="opacity:0.999" fill="#00bed6" d="M -0.5,-0.5 C 428.167,-0.5 856.833,-0.5 1285.5,-0.5C 1285.5,-0.166667 1285.5,0.166667 1285.5,0.5C 857.17,236.663 429.17,473.329 1.5,710.5C 0.833333,710.5 0.166667,710.5 -0.5,710.5C -0.5,473.5 -0.5,236.5 -0.5,-0.5 Z"/></g>
<g><path style="opacity:0.999" fill="#e6007a" d="M 1285.5,0.5 C 1285.5,0.166667 1285.5,-0.166667 1285.5,-0.5C 1602.17,-0.5 1918.83,-0.5 2235.5,-0.5C 2596.05,16.6816 2906.72,148.515 3167.5,395C 3384.48,607.057 3521.31,863.223 3578,1163.5C 3589.6,1229.85 3596.77,1296.51 3599.5,1363.5C 3599.5,1397.17 3599.5,1430.83 3599.5,1464.5C 3584.03,1797.24 3468.86,2089.58 3254,2341.5C 3036.07,2588.61 2764.24,2743.45 2438.5,2806C 2367.72,2818.74 2296.39,2826.07 2224.5,2828C 1919.83,2828.67 1615.17,2828.67 1310.5,2828C 1712.58,2596.21 2114.41,2364.05 2516,2131.5C 2516.83,1657.83 2516.67,1184.17 2515.5,710.5C 2105.47,473.822 1695.47,237.155 1285.5,0.5 Z"/></g>
<g><path style="opacity:1" fill="#fefffe" d="M -0.5,710.5 C 0.166667,710.5 0.833333,710.5 1.5,710.5C 428.944,944.726 856.611,1178.73 1284.5,1412.5C 1285.5,2141.5 1285.83,2870.5 1285.5,3599.5C 856.833,3599.5 428.167,3599.5 -0.5,3599.5C -0.5,2636.5 -0.5,1673.5 -0.5,710.5 Z"/></g>
</svg>
