<?xml version="1.0" encoding="UTF-8"?>
<!DOCTYPE svg PUBLIC "-//W3C//DTD SVG 1.1//EN" "http://www.w3.org/Graphics/SVG/1.1/DTD/svg11.dtd">
<svg xmlns="http://www.w3.org/2000/svg" version="1.1" width="12752px" height="3600px" style="shape-rendering:geometricPrecision; text-rendering:geometricPrecision; image-rendering:optimizeQuality; fill-rule:evenodd; clip-rule:evenodd" xmlns:xlink="http://www.w3.org/1999/xlink">
<g><path style="opacity:0.996" fill="#fefffe" d="M 3199.5,839.5 C 3308.17,839.5 3416.83,839.5 3525.5,839.5C 3525.5,1492.83 3525.5,2146.17 3525.5,2799.5C 3416.83,2799.5 3308.17,2799.5 3199.5,2799.5C 3199.5,2146.17 3199.5,1492.83 3199.5,839.5 Z"/></g>
<g><path style="opacity:0.996" fill="#fefffe" d="M 3855.5,839.5 C 3964.17,839.5 4072.83,839.5 4181.5,839.5C 4181.33,1212.17 4181.5,1584.83 4182,1957.5C 4365.22,1771.94 4548.06,1586.11 4730.5,1400C 4865.5,1399.33 5000.5,1399.33 5135.5,1400C 4951.15,1585.68 4766.82,1771.35 4582.5,1957C 4776.96,2237.63 4971.62,2518.13 5166.5,2798.5C 5037.17,2799.83 4907.83,2799.83 4778.5,2798.5C 4638.2,2593.7 4497.7,2389.03 4357,2184.5C 4298.67,2242.83 4240.33,2301.17 4182,2359.5C 4181.5,2506.17 4181.33,2652.83 4181.5,2799.5C 4072.83,2799.5 3964.17,2799.5 3855.5,2799.5C 3855.5,2146.17 3855.5,1492.83 3855.5,839.5 Z"/></g>
<g><path style="opacity:0.996" fill="#fefffe" d="M 8251.5,945.5 C 8359.17,945.5 8466.83,945.5 8574.5,945.5C 8574.5,1096.83 8574.5,1248.17 8574.5,1399.5C 8682.83,1399.5 8791.17,1399.5 8899.5,1399.5C 8899.83,1488.4 8899.5,1577.24 8898.5,1666C 8790.5,1666.5 8682.5,1666.67 8574.5,1666.5C 8574.33,1911.83 8574.5,2157.17 8575,2402.5C 8574.61,2428.04 8578.94,2452.71 8588,2476.5C 8597.32,2494.82 8611.82,2506.99 8631.5,2513C 8647.51,2517.62 8663.84,2520.29 8680.5,2521C 8767.5,2521.5 8854.5,2521.67 8941.5,2521.5C 8941.83,2614.4 8941.5,2707.24 8940.5,2800C 8824.83,2800.67 8709.17,2800.67 8593.5,2800C 8532.8,2801.16 8474.47,2790.16 8418.5,2767C 8339.66,2729.47 8289.16,2668.3 8267,2583.5C 8259.63,2554.94 8254.96,2525.94 8253,2496.5C 8251.52,2219.84 8251.02,1943.17 8251.5,1666.5C 8152.83,1666.67 8054.17,1666.5 7955.5,1666C 7954.5,1577.24 7954.17,1488.4 7954.5,1399.5C 8053.5,1399.5 8152.5,1399.5 8251.5,1399.5C 8251.5,1248.17 8251.5,1096.83 8251.5,945.5 Z"/></g>
<g><path style="opacity:0.996" fill="#fefffe" d="M 10751.5,945.5 C 10859.2,945.5 10966.8,945.5 11074.5,945.5C 11074.5,1096.83 11074.5,1248.17 11074.5,1399.5C 11182.8,1399.5 11291.2,1399.5 11399.5,1399.5C 11399.8,1488.4 11399.5,1577.24 11398.5,1666C 11290.5,1666.5 11182.5,1666.67 11074.5,1666.5C 11074.3,1914.83 11074.5,2163.17 11075,2411.5C 11075.3,2432.47 11079,2452.8 11086,2472.5C 11095.6,2493.91 11111.8,2507.74 11134.5,2514C 11149.6,2517.92 11164.9,2520.25 11180.5,2521C 11267.5,2521.5 11354.5,2521.67 11441.5,2521.5C 11441.8,2614.4 11441.5,2707.24 11440.5,2800C 11324.8,2800.67 11209.2,2800.67 11093.5,2800C 11033.6,2801.07 10975.9,2790.41 10920.5,2768C 10848.7,2735.52 10799.9,2682.02 10774,2607.5C 10762.5,2573.07 10755.5,2537.73 10753,2501.5C 10751.5,2223.18 10751,1944.84 10751.5,1666.5C 10652.8,1666.67 10554.2,1666.5 10455.5,1666C 10454.5,1577.24 10454.2,1488.4 10454.5,1399.5C 10553.5,1399.5 10652.5,1399.5 10751.5,1399.5C 10751.5,1248.17 10751.5,1096.83 10751.5,945.5 Z"/></g>
<g><path style="opacity:0.997" fill="#fefffe" d="M 731.5,1371.5 C 857.585,1365.05 973.919,1395.21 1080.5,1462C 1155.7,1511.87 1216.54,1575.37 1263,1652.5C 1326.68,1761.22 1363.68,1878.55 1374,2004.5C 1386.03,2128.81 1374.36,2250.81 1339,2370.5C 1303.26,2489.21 1240.76,2591.05 1151.5,2676C 1048.26,2768.58 926.931,2818.91 787.5,2827C 661.739,2833.95 547.405,2801.62 444.5,2730C 400.303,2699.14 364.47,2660.64 337,2614.5C 336.5,2862.83 336.333,3111.17 336.5,3359.5C 228.167,3359.5 119.833,3359.5 11.5,3359.5C 11.5,2706.17 11.5,2052.83 11.5,1399.5C 119.833,1399.5 228.167,1399.5 336.5,1399.5C 336.333,1461.17 336.5,1522.83 337,1584.5C 360.112,1547.04 389.278,1514.88 424.5,1488C 515.367,1419.59 617.7,1380.76 731.5,1371.5 Z M 665.5,1635.5 C 799.812,1625.57 902.979,1676.91 975,1789.5C 1013.24,1854.06 1036.9,1923.72 1046,1998.5C 1059.4,2098.56 1052.73,2197.23 1026,2294.5C 1007.61,2357.3 977.278,2413.3 935,2462.5C 861.944,2539.76 772.11,2573.26 665.5,2563C 583.929,2555.13 515.429,2521.3 460,2461.5C 406.399,2400.3 370.733,2329.64 353,2249.5C 331,2149.5 331,2049.5 353,1949.5C 368.529,1879.49 397.862,1816.16 441,1759.5C 479.547,1710.95 527.714,1675.45 585.5,1653C 611.566,1643.76 638.232,1637.92 665.5,1635.5 Z"/></g>
<g><path style="opacity:0.996" fill="#fefffe" d="M 2211.5,1371.5 C 2329.85,1365.47 2442.85,1386.97 2550.5,1436C 2696.54,1508.04 2803.37,1618.2 2871,1766.5C 2921.02,1881.58 2943.68,2001.92 2939,2127.5C 2935.94,2250.4 2906.28,2366.4 2850,2475.5C 2756.49,2646.29 2615.32,2756.79 2426.5,2807C 2284.42,2840.73 2144.42,2833.73 2006.5,2786C 1856.57,2728.72 1741.73,2630.56 1662,2491.5C 1602.91,2383.81 1570.57,2268.48 1565,2145.5C 1557.83,2016.51 1579.16,1892.51 1629,1773.5C 1695.21,1623.63 1801.37,1511.79 1947.5,1438C 2031.24,1398.57 2119.24,1376.4 2211.5,1371.5 Z M 2215.5,1635.5 C 2380.23,1624.25 2497.4,1692.92 2567,1841.5C 2597.9,1914.64 2614.23,1990.97 2616,2070.5C 2619.76,2153.76 2609.09,2235.1 2584,2314.5C 2565.14,2371.27 2535.8,2421.6 2496,2465.5C 2442.36,2521.24 2376.86,2553.4 2299.5,2562C 2128.28,2578.84 2006.78,2509.67 1935,2354.5C 1910.22,2295.61 1895.22,2234.28 1890,2170.5C 1881.45,2080.4 1889.12,1991.73 1913,1904.5C 1930.8,1843.88 1959.8,1789.55 2000,1741.5C 2057.73,1677.72 2129.56,1642.39 2215.5,1635.5 Z"/></g>
<g><path style="opacity:0.996" fill="#fefffe" d="M 5794.5,1371.5 C 5890.76,1366.62 5984.76,1378.79 6076.5,1408C 6169.89,1439.24 6248.06,1492.41 6311,1567.5C 6375.94,1652.15 6410.61,1748.15 6415,1855.5C 6415.33,2083.17 6415.67,2310.83 6416,2538.5C 6416.15,2626.07 6420.65,2713.4 6429.5,2800.5C 6328.83,2800.67 6228.17,2800.5 6127.5,2800C 6125.2,2793.06 6123.7,2785.89 6123,2778.5C 6115.74,2722.38 6111.07,2666.04 6109,2609.5C 6069.45,2671.72 6017.62,2720.89 5953.5,2757C 5847.46,2815.61 5734.12,2837.94 5613.5,2824C 5522.48,2813.79 5440.81,2781.13 5368.5,2726C 5263.12,2636.99 5214.62,2523.16 5223,2384.5C 5232.85,2229.82 5305.35,2115.65 5440.5,2042C 5503.69,2009.6 5570.35,1987.6 5640.5,1976C 5662.06,1972.25 5683.73,1969.25 5705.5,1967C 5836.41,1956.02 5967.24,1944.86 6098,1933.5C 6101.94,1883.23 6095.94,1834.23 6080,1786.5C 6045.22,1700.49 5981.72,1650.99 5889.5,1638C 5856.2,1635.09 5822.86,1634.76 5789.5,1637C 5731.27,1642.39 5679.93,1663.73 5635.5,1701C 5599.38,1733.49 5578.71,1773.99 5573.5,1822.5C 5464.83,1822.5 5356.17,1822.5 5247.5,1822.5C 5259.91,1695.42 5314.57,1590.92 5411.5,1509C 5493.22,1444.05 5585.89,1402.38 5689.5,1384C 5724.41,1377.76 5759.41,1373.59 5794.5,1371.5 Z M 6094.5,2175.5 C 6095.83,2175.5 6097.17,2175.5 6098.5,2175.5C 6116.48,2325.69 6061.15,2439.19 5932.5,2516C 5847.65,2563.26 5757.98,2575.6 5663.5,2553C 5612.51,2537.66 5575.34,2506.16 5552,2458.5C 5532.3,2407.39 5535.97,2358.06 5563,2310.5C 5581.5,2282.83 5605.34,2261 5634.5,2245C 5678.17,2222.45 5724.5,2208.78 5773.5,2204C 5880.68,2194.76 5987.68,2185.26 6094.5,2175.5 Z"/></g>
<g><path style="opacity:0.996" fill="#fefffe" d="M 7208.5,1371.5 C 7293.7,1367.66 7377.7,1375.82 7460.5,1396C 7541.42,1415.95 7613.08,1452.95 7675.5,1507C 7745.79,1572.73 7789.63,1653.23 7807,1748.5C 7813.11,1782.23 7815.94,1816.23 7815.5,1850.5C 7707.16,1850.83 7598.83,1850.5 7490.5,1849.5C 7487.12,1801.2 7472.29,1756.86 7446,1716.5C 7417.98,1678.52 7381.15,1653.02 7335.5,1640C 7305.52,1632.12 7275.02,1628.62 7244,1629.5C 7201.73,1628.06 7160.9,1634.89 7121.5,1650C 7089.02,1663.47 7062.86,1684.64 7043,1713.5C 7018.65,1756.46 7017.32,1800.12 7039,1844.5C 7058.8,1875.3 7085.64,1897.8 7119.5,1912C 7133.51,1918.17 7147.84,1923.5 7162.5,1928C 7259.16,1951 7355.83,1974 7452.5,1997C 7516.12,2013.32 7575.79,2038.65 7631.5,2073C 7738.39,2142.76 7794.89,2241.92 7801,2370.5C 7808.42,2512.79 7755.59,2626.63 7642.5,2712C 7582.75,2754.61 7517.09,2784.94 7445.5,2803C 7361.36,2823.5 7276.03,2831.5 7189.5,2827C 7102.35,2824.3 7018.02,2807.64 6936.5,2777C 6763.3,2706.43 6666.8,2577.93 6647,2391.5C 6645.83,2377.18 6645,2362.85 6644.5,2348.5C 6753.17,2348.5 6861.83,2348.5 6970.5,2348.5C 6979.03,2449.75 7031.03,2517.59 7126.5,2552C 7176.06,2567.16 7226.72,2572.82 7278.5,2569C 7325.58,2567.9 7369.58,2555.9 7410.5,2533C 7469.42,2494.27 7490.26,2440.43 7473,2371.5C 7463.56,2341.73 7446.06,2317.9 7420.5,2300C 7393.99,2283.09 7365.33,2271.09 7334.5,2264C 7247.25,2245.44 7160.25,2225.77 7073.5,2205C 7007.83,2187.66 6945.49,2162.32 6886.5,2129C 6751.45,2047.42 6689.95,1927.25 6702,1768.5C 6714.37,1645.2 6770.87,1548.03 6871.5,1477C 6935.72,1433.4 7006.06,1403.74 7082.5,1388C 7124.26,1379.53 7166.26,1374.03 7208.5,1371.5 Z"/></g>
<g><path style="opacity:0.996" fill="#fefffe" d="M 9669.5,1371.5 C 9750,1367.83 9829.33,1375.67 9907.5,1395C 10006.4,1419.72 10091.2,1468.22 10162,1540.5C 10240.6,1628.07 10282.9,1731.07 10289,1849.5C 10290.3,2093.49 10291,2337.49 10291,2581.5C 10292.1,2654.68 10296.2,2727.52 10303.5,2800C 10202.8,2800.67 10102.2,2800.67 10001.5,2800C 9996.65,2774.4 9993.15,2748.57 9991,2722.5C 9987.16,2684.91 9984.49,2647.25 9983,2609.5C 9943.83,2671 9892.67,2719.83 9829.5,2756C 9733.92,2809.85 9631.26,2833.52 9521.5,2827C 9426.5,2822.11 9339.83,2793.11 9261.5,2740C 9145.88,2653.23 9091.04,2537.06 9097,2391.5C 9106.32,2222.92 9186.82,2102.42 9338.5,2030C 9415.28,1995.72 9495.61,1974.72 9579.5,1967C 9710.47,1955.67 9841.47,1944.84 9972.5,1934.5C 9972.67,1913.83 9972.5,1893.16 9972,1872.5C 9969.24,1813.52 9949.57,1761.19 9913,1715.5C 9867.54,1666.03 9811.04,1639.53 9743.5,1636C 9689.74,1631.08 9637.41,1637.42 9586.5,1655C 9535.05,1674.13 9495.55,1707.3 9468,1754.5C 9456.83,1775.86 9449.99,1798.52 9447.5,1822.5C 9338.83,1822.5 9230.17,1822.5 9121.5,1822.5C 9136.42,1679.58 9202.08,1566.74 9318.5,1484C 9406.46,1424.67 9503.46,1389 9609.5,1377C 9629.62,1374.82 9649.62,1372.99 9669.5,1371.5 Z M 9969.5,2175.5 C 9970.5,2175.5 9971.5,2175.5 9972.5,2175.5C 9990.51,2328.31 9933.51,2442.81 9801.5,2519C 9719.19,2563.09 9632.53,2574.76 9541.5,2554C 9498.04,2541.84 9463.54,2517.34 9438,2480.5C 9405.47,2423.56 9405.47,2366.56 9438,2309.5C 9457.19,2280.97 9482.03,2258.81 9512.5,2243C 9558.47,2220.01 9607.14,2206.67 9658.5,2203C 9762.34,2194.1 9866.01,2184.93 9969.5,2175.5 Z"/></g>
<g><path style="opacity:0.996" fill="#fefffe" d="M 12751.5,1816.5 C 12751.5,1827.83 12751.5,1839.17 12751.5,1850.5C 12643.2,1850.83 12534.8,1850.5 12426.5,1849.5C 12423.2,1806.46 12411,1766.12 12390,1728.5C 12362,1683.85 12322.5,1654.35 12271.5,1640C 12241.7,1632.15 12211.3,1628.65 12180.5,1629.5C 12131.4,1627.51 12084.8,1637.01 12040.5,1658C 11971.6,1696.13 11947.4,1753.3 11968,1829.5C 11980.7,1858.22 12000.5,1880.72 12027.5,1897C 12049.8,1910.32 12073.5,1920.66 12098.5,1928C 12195.2,1951 12291.8,1974 12388.5,1997C 12450.9,2013.12 12509.5,2037.78 12564.5,2071C 12665.3,2134.64 12722.2,2226.14 12735,2345.5C 12751.2,2499.48 12697.7,2622.65 12574.5,2715C 12509.5,2760.13 12438.2,2791.13 12360.5,2808C 12283,2824.7 12204.7,2831.03 12125.5,2827C 12049.3,2824.47 11975,2811.47 11902.5,2788C 11818.1,2760.43 11746.3,2713.93 11687,2648.5C 11631.3,2581.53 11597.6,2504.53 11586,2417.5C 11583,2394.59 11581.1,2371.59 11580.5,2348.5C 11689.2,2348.5 11797.8,2348.5 11906.5,2348.5C 11913.7,2442.52 11960.4,2508.36 12046.5,2546C 12077.1,2558.04 12108.7,2565.38 12141.5,2568C 12179.6,2570.71 12217.6,2569.71 12255.5,2565C 12297.7,2559.07 12335.3,2543.07 12368.5,2517C 12407.6,2480.63 12422.1,2436.13 12412,2383.5C 12402.1,2340.62 12377.6,2309.12 12338.5,2289C 12316.8,2278.1 12294.1,2269.76 12270.5,2264C 12183.2,2245.44 12096.2,2225.77 12009.5,2205C 11943.8,2187.66 11881.5,2162.32 11822.5,2129C 11693.2,2052.25 11631.4,1938.09 11637,1786.5C 11643.7,1658.82 11698.2,1557.32 11800.5,1482C 11874,1430.48 11955.3,1397.48 12044.5,1383C 12105.8,1372.61 12167.4,1368.95 12229.5,1372C 12310.4,1374.53 12388.7,1389.87 12464.5,1418C 12642.6,1491.03 12738.3,1623.86 12751.5,1816.5 Z"/></g>
</svg>
