<svg width="204" height="60" viewBox="0 0 102 30" fill="none" xmlns="http://www.w3.org/2000/svg">
<path fill-rule="evenodd" clip-rule="evenodd" d="M30.8678 14.6413C30.8678 22.3407 24.919 28.7164 17.2818 29.2788C16.306 29.3507 15.4566 28.6179 15.3848 27.642C15.3129 26.6662 16.0457 25.8168 17.0216 25.745C22.811 25.3186 27.3244 20.4814 27.3244 14.6413C27.3244 8.80599 22.8183 3.97122 17.0346 3.53853C16.0588 3.46553 15.3269 2.61534 15.3999 1.63957C15.4729 0.663799 16.3231 -0.0680409 17.2989 0.00495836C24.9286 0.575748 30.8678 6.94819 30.8678 14.6413ZM10.4909 4.69296C11.6952 4.69296 12.6715 3.71668 12.6715 2.51238C12.6715 1.30808 11.6952 0.331796 10.4909 0.331796C9.28661 0.331796 8.31033 1.30808 8.31033 2.51238C8.31033 3.71668 9.28661 4.69296 10.4909 4.69296ZM6.92682 7.05521C6.92682 8.25951 5.95054 9.23579 4.74624 9.23579C3.54194 9.23579 2.56566 8.25951 2.56566 7.05521C2.56566 5.85091 3.54194 4.87463 4.74624 4.87463C5.95054 4.87463 6.92682 5.85091 6.92682 7.05521ZM2.18058 16.3762C3.38489 16.3762 4.36117 15.3999 4.36117 14.1956C4.36117 12.9913 3.38489 12.015 2.18058 12.015C0.97628 12.015 0 12.9913 0 14.1956C0 15.3999 0.97628 16.3762 2.18058 16.3762ZM6.92682 21.8857C6.92682 23.09 5.95054 24.0663 4.74624 24.0663C3.54194 24.0663 2.56566 23.09 2.56566 21.8857C2.56566 20.6814 3.54194 19.7052 4.74624 19.7052C5.95054 19.7052 6.92682 20.6814 6.92682 21.8857ZM12.6715 26.4286C12.6715 27.6329 11.6952 28.6092 10.4909 28.6092C9.28661 28.6092 8.31033 27.6329 8.31033 26.4286C8.31033 25.2243 9.28661 24.248 10.4909 24.248C11.6952 24.248 12.6715 25.2243 12.6715 26.4286Z" fill="currentColor"></path>
<path d="M55.1499 22.1645V19.4317H47.3721V7.17651H44.4292V22.1645H55.1499Z" fill="currentColor"></path>
<path d="M65.5275 22.1645H67.9869V10.0774H65.044V16.2365C65.044 18.4437 64.056 19.9362 62.1431 19.9362C60.1251 19.9362 59.4524 18.6329 59.4524 16.6359V10.0774H56.5305V17.3927C56.5305 20.5038 58.044 22.4377 61.0921 22.4377C63.1942 22.4377 64.6026 21.4077 65.2542 19.7891L65.5275 22.1645Z" fill="currentColor"></path>
<path d="M73.4092 16.0474C73.4092 13.693 74.4182 12.2426 76.6044 12.2426C78.7065 12.2426 79.4002 13.5459 79.4002 15.6059V22.1645H82.3431V14.8912C82.3431 11.7591 80.6614 9.76209 77.5714 9.76209C75.3852 9.76209 73.9137 10.8552 73.22 12.5369L72.9467 10.0774H70.4663V22.1645H73.4092V16.0474Z" fill="currentColor"></path>
<path d="M85.9712 8.669C87.2535 8.669 87.9051 8.12246 87.9051 6.77711C87.9051 5.38973 87.2324 4.90625 85.9712 4.90625C84.731 4.90625 84.0583 5.38973 84.0583 6.77711C84.0583 8.18552 84.5838 8.669 85.9712 8.669ZM87.4216 22.1645V10.0774H84.4577V22.1645H87.4216Z" fill="currentColor"></path>
<path d="M95.7146 12.0534C97.7746 12.0534 98.8677 13.1044 99.0989 14.9543H92.0359C92.3512 13.1044 93.6335 12.0534 95.7146 12.0534ZM101.832 18.5909H98.6785C98.2161 19.5789 97.2911 20.1254 95.6935 20.1254C93.4863 20.1254 92.2671 19.0954 92.0149 17.2035H102V15.9212C102 12.642 100.003 9.76209 95.6725 9.76209C91.5945 9.76209 89.135 12.3477 89.135 16.1525V16.3837C89.135 20.1044 91.153 22.5008 95.5464 22.5008C98.8677 22.5008 100.991 21.1344 101.832 18.5909Z" fill="currentColor"></path>
</svg>