<svg xmlns="http://www.w3.org/2000/svg" xmlns:xlink="http://www.w3.org/1999/xlink" width="22px" height="22px" viewBox="0 0 22 22"><title>xx-network-logo--color</title><g id="Page-1" stroke="none" stroke-width="1" fill="none" fill-rule="evenodd"><g id="xx-network-logo--color" fill-rule="nonzero"><path d="M14.840091,4.361141 C15.324691,5.451431 15.627491,6.662861 15.627491,7.904571 C15.627491,7.934861 15.627491,7.995431 15.627491,8.025721 L19.746391,4.361141 L19.746391,0 L14.840091,4.361141 Z" id="Path" fill="#0DB9CB"></path><path d="M14.325091,7.934841 C14.325091,3.573701 10.418191,0.030274 5.633061,0.030274 L5.633061,3.301131 C8.570771,3.301131 10.963291,5.299991 11.054191,7.783421 L8.843341,9.751941 C9.418791,10.781741 9.812491,11.932541 9.963891,13.143941 L11.932491,11.387441 C13.325591,14.052541 16.323891,15.869741 19.776491,15.869741 L19.776491,12.598841 C16.747891,12.568541 14.325091,10.478841 14.325091,7.934841 Z" id="Path" fill="#0DB9CB"></path><path d="M14.113191,21.926841 L14.113191,18.656041 C11.114891,18.656041 8.692001,16.566241 8.692001,14.022241 C8.692001,9.661141 4.785141,6.117711 -2.66453526e-15,6.117711 L-2.66453526e-15,9.388541 C2.544001,9.388541 4.694281,10.902841 5.269711,12.932041 L4.118861,13.961741 L1.756571,16.081741 L-2.66453526e-15,17.626241 L-2.66453526e-15,21.987441 L5.936001,16.717741 C7.117141,19.716041 10.327391,21.926841 14.113191,21.926841 Z" id="Path" fill="#0DB9CB"></path></g></g></svg>