<?xml version="1.0" encoding="UTF-8"?>
<!DOCTYPE svg PUBLIC "-//W3C//DTD SVG 1.1//EN" "http://www.w3.org/Graphics/SVG/1.1/DTD/svg11.dtd">
<svg xmlns="http://www.w3.org/2000/svg" version="1.1" width="480px" height="480px" style="shape-rendering:geometricPrecision; text-rendering:geometricPrecision; image-rendering:optimizeQuality; fill-rule:evenodd; clip-rule:evenodd" xmlns:xlink="http://www.w3.org/1999/xlink">
<g><path style="opacity:1" fill="#fcfcfc" d="M 324.5,353.5 C 324.631,354.239 324.464,354.906 324,355.5C 322.989,354.663 321.822,354.33 320.5,354.5C 314.65,354.04 308.817,353.373 303,352.5C 295.338,353.143 287.838,354.477 280.5,356.5C 281.685,352.308 284.351,349.308 288.5,347.5C 283.927,340.426 277.927,334.926 270.5,331C 262.571,324.645 257.571,316.478 255.5,306.5C 247.748,304.993 239.915,303.993 232,303.5C 229.267,305.428 228.1,304.761 228.5,301.5C 233.682,301.121 238.682,299.955 243.5,298C 243.272,297.601 242.938,297.435 242.5,297.5C 239.814,296.009 236.814,295.343 233.5,295.5C 231.304,295.505 229.304,295.838 227.5,296.5C 207.176,299.081 187.176,303.247 167.5,309C 137.666,317.752 108.333,327.918 79.5,339.5C 78.7492,338.624 78.2492,337.624 78,336.5C 71.9362,339.806 65.4362,341.14 58.5,340.5C 56.4687,340.028 54.8021,339.028 53.5,337.5C 57.6748,334.165 62.0081,330.998 66.5,328C 63.1182,327.824 59.7848,327.324 56.5,326.5C 94.198,306.985 131.865,287.485 169.5,268C 162.311,266.351 155.144,266.184 148,267.5C 147.517,266.552 147.351,265.552 147.5,264.5C 151.381,263.226 155.048,261.393 158.5,259C 195.33,235.084 232.33,211.417 269.5,188C 285.609,178.612 302.276,170.279 319.5,163C 330.583,152.579 342.25,142.912 354.5,134C 360.264,130.784 366.264,128.117 372.5,126C 380.639,124.65 388.306,125.983 395.5,130C 407.418,138.281 418.251,147.448 428,157.5C 419.674,160.578 411.508,164.078 403.5,168C 394.689,174.493 388.523,182.993 385,193.5C 380.453,207.141 375.119,220.474 369,233.5C 361.104,244.728 351.271,253.895 339.5,261C 322.546,269.477 305.879,278.477 289.5,288C 282.154,294.531 279.32,302.698 281,312.5C 283.598,322.786 289.098,331.286 297.5,338C 303.5,343.501 310.5,347.168 318.5,349C 320.747,350.277 322.747,351.777 324.5,353.5 Z"/></g>
<g><path style="opacity:0.965" fill="#c4c4c4" d="M 227.5,296.5 C 229.304,295.838 231.304,295.505 233.5,295.5C 236.814,295.343 239.814,296.009 242.5,297.5C 237.537,296.746 232.537,296.413 227.5,296.5 Z"/></g>
<g><path style="opacity:0.082" fill="#a3a3a3" d="M 53.5,337.5 C 54.8021,339.028 56.4687,340.028 58.5,340.5C 56.076,340.808 53.7427,340.474 51.5,339.5C 51.8555,338.478 52.5222,337.811 53.5,337.5 Z"/></g>
<g><path style="opacity:0.384" fill="#b1b1b1" d="M 324.5,353.5 C 326.93,354.653 326.93,355.653 324.5,356.5C 322.829,356.332 321.496,355.665 320.5,354.5C 321.822,354.33 322.989,354.663 324,355.5C 324.464,354.906 324.631,354.239 324.5,353.5 Z"/></g>
</svg>
